<svg width="512" height="512" viewBox="0 0 512 512" fill="none" xmlns="http://www.w3.org/2000/svg">
<rect x="251.59" y="490.797" width="352" height="352" rx="27" transform="rotate(-134 251.59 490.797)" fill="black" fill-opacity="0.05" stroke="url(#paint0_linear_1397_13)" stroke-width="10"/>
<g filter="url(#filter0_f_1397_13)">
<rect x="251.947" y="434.608" width="272" height="272" rx="32" transform="rotate(-134 251.947 434.608)" fill="#4F3ED2"/>
<rect x="251.972" y="433.194" width="270" height="270" rx="31" transform="rotate(-134 251.972 433.194)" stroke="url(#paint1_linear_1397_13)" stroke-width="2"/>
</g>
<rect x="251.972" y="433.194" width="270" height="270" rx="31" transform="rotate(-134 251.972 433.194)" fill="#0E0D0D" stroke="url(#paint2_linear_1397_13)" stroke-width="2"/>
<path d="M318.365 210.716C316.255 210.013 314.146 209.348 312.036 208.723C312.388 207.278 312.7 205.833 313.013 204.387C317.818 181.105 314.654 162.394 303.989 156.222C293.715 150.323 276.957 156.456 260.003 171.222C258.324 172.668 256.683 174.191 255.12 175.715C254.066 174.699 252.972 173.683 251.878 172.707C234.104 156.925 216.291 150.284 205.627 156.495C195.392 162.433 192.345 180.051 196.642 202.083C197.072 204.27 197.54 206.419 198.087 208.606C195.587 209.309 193.126 210.091 190.821 210.911C169.961 218.138 155 229.544 155 241.342C155 253.53 170.938 265.757 192.618 273.179C194.376 273.765 196.134 274.351 197.931 274.858C197.345 277.202 196.837 279.507 196.369 281.89C192.267 303.57 195.47 320.758 205.705 326.657C216.252 332.751 233.987 326.501 251.253 311.383C252.62 310.172 253.988 308.922 255.355 307.594C257.074 309.274 258.871 310.875 260.667 312.438C277.387 326.813 293.911 332.634 304.106 326.735C314.654 320.641 318.091 302.164 313.638 279.663C313.286 277.944 312.896 276.187 312.466 274.39C313.716 274.038 314.927 273.647 316.138 273.257C338.678 265.796 355.007 253.725 355.007 241.342C355.007 229.505 339.615 218.021 318.365 210.716ZM265.511 177.551C280.043 164.894 293.598 159.933 299.77 163.488C306.372 167.277 308.911 182.59 304.77 202.708C304.497 204.036 304.224 205.325 303.872 206.614C295.2 204.661 286.411 203.255 277.582 202.473C272.504 195.207 266.957 188.254 260.941 181.73C262.464 180.285 263.949 178.918 265.511 177.551ZM220.315 261.616C222.307 265.014 224.338 268.413 226.487 271.733C220.393 271.069 214.338 270.093 208.361 268.804C210.08 263.178 212.228 257.358 214.729 251.42C216.525 254.858 218.361 258.256 220.315 261.616ZM208.478 214.622C214.103 213.372 220.08 212.356 226.291 211.575C224.221 214.817 222.19 218.138 220.276 221.497C218.361 224.818 216.486 228.216 214.729 231.654C212.267 225.833 210.197 220.13 208.478 214.622ZM219.182 241.537C221.76 236.146 224.573 230.873 227.541 225.677C230.51 220.482 233.713 215.442 237.073 210.481C242.933 210.052 248.909 209.817 255.003 209.817C261.097 209.817 267.113 210.052 272.934 210.481C276.254 215.403 279.418 220.443 282.426 225.599C285.434 230.755 288.247 236.029 290.903 241.381C288.286 246.772 285.473 252.084 282.465 257.319C279.496 262.514 276.332 267.553 273.012 272.554C267.191 272.983 261.136 273.179 255.003 273.179C248.87 273.179 242.933 272.983 237.19 272.632C233.792 267.671 230.588 262.592 227.58 257.397C224.573 252.201 221.799 246.928 219.182 241.537ZM289.731 261.538C291.723 258.1 293.598 254.623 295.434 251.108C297.934 256.772 300.122 262.514 302.036 268.413C295.981 269.78 289.848 270.835 283.676 271.538C285.785 268.257 287.778 264.897 289.731 261.538ZM295.356 231.654C293.52 228.216 291.645 224.779 289.692 221.419C287.778 218.099 285.786 214.817 283.715 211.575C290.004 212.356 296.02 213.411 301.645 214.7C299.848 220.482 297.739 226.107 295.356 231.654ZM255.081 187.707C259.183 192.16 263.05 196.848 266.644 201.692C258.91 201.34 251.136 201.34 243.401 201.692C247.23 196.653 251.175 191.965 255.081 187.707ZM209.767 163.761C216.33 159.933 230.901 165.402 246.253 178.996C247.23 179.855 248.206 180.793 249.222 181.73C243.167 188.254 237.581 195.207 232.463 202.473C223.635 203.255 214.885 204.622 206.213 206.536C205.705 204.544 205.275 202.512 204.845 200.481C201.173 181.574 203.595 167.316 209.767 163.761ZM200.197 266.733C198.556 266.264 196.954 265.757 195.353 265.21C187.032 262.592 177.579 258.452 170.743 253.022C166.797 250.287 164.141 246.068 163.399 241.342C163.399 234.193 175.743 225.052 193.556 218.841C195.783 218.06 198.048 217.357 200.314 216.692C202.97 225.169 206.174 233.49 209.885 241.537C206.134 249.701 202.892 258.139 200.197 266.733ZM245.745 305.016C239.3 310.914 231.838 315.602 223.713 318.805C219.377 320.876 214.377 321.071 209.924 319.313C203.713 315.719 201.134 301.93 204.65 283.374C205.08 281.187 205.549 278.999 206.095 276.851C214.846 278.726 223.674 280.015 232.62 280.679C237.776 287.984 243.44 294.976 249.495 301.539C248.245 302.75 246.995 303.922 245.745 305.016ZM255.316 295.523C251.331 291.226 247.347 286.46 243.479 281.343C247.23 281.499 251.097 281.577 255.003 281.577C259.027 281.577 262.972 281.499 266.879 281.304C263.285 286.265 259.417 290.992 255.316 295.523ZM306.372 307.242C306.021 312.008 303.677 316.461 299.927 319.469C293.715 323.063 280.473 318.375 266.175 306.109C264.535 304.703 262.894 303.18 261.214 301.617C267.191 295.015 272.699 288.023 277.699 280.679C286.645 279.937 295.551 278.569 304.341 276.577C304.731 278.179 305.083 279.78 305.396 281.343C307.31 289.781 307.622 298.57 306.372 307.242ZM313.482 265.249C312.388 265.6 311.294 265.952 310.161 266.264C307.427 257.748 304.067 249.428 300.2 241.342C303.95 233.373 307.114 225.169 309.771 216.771C311.802 217.357 313.755 217.982 315.63 218.607C333.834 224.857 346.608 234.154 346.608 241.264C346.608 248.92 332.975 258.803 313.482 265.249ZM255.003 259.389C264.886 259.389 272.894 251.381 272.894 241.498C272.894 231.615 264.886 223.607 255.003 223.607C245.12 223.607 237.112 231.615 237.112 241.498C237.112 251.381 245.12 259.389 255.003 259.389Z" fill="#4F3ED2"/>
<defs>
<filter id="filter0_f_1397_13" x="-23.7521" y="-36.7521" width="558.112" height="558.112" filterUnits="userSpaceOnUse" color-interpolation-filters="sRGB">
<feFlood flood-opacity="0" result="BackgroundImageFix"/>
<feBlend mode="normal" in="SourceGraphic" in2="BackgroundImageFix" result="shape"/>
<feGaussianBlur stdDeviation="50" result="effect1_foregroundBlur_1397_13"/>
</filter>
<linearGradient id="paint0_linear_1397_13" x1="616.309" y1="856.403" x2="386.014" y2="616.029" gradientUnits="userSpaceOnUse">
<stop stop-color="#4F3ED2"/>
<stop offset="1" stop-color="#4F3ED2" stop-opacity="0"/>
</linearGradient>
<linearGradient id="paint1_linear_1397_13" x1="512.822" y1="690.776" x2="388.377" y2="570.6" gradientUnits="userSpaceOnUse">
<stop stop-color="#4F3ED2"/>
<stop offset="1" stop-color="#4F3ED2" stop-opacity="0"/>
</linearGradient>
<linearGradient id="paint2_linear_1397_13" x1="512.822" y1="690.776" x2="388.377" y2="570.6" gradientUnits="userSpaceOnUse">
<stop stop-color="#4F3ED2"/>
<stop offset="1" stop-color="#4F3ED2" stop-opacity="0"/>
</linearGradient>
</defs>
</svg>
