<svg width="559" height="559" viewBox="0 0 559 559" fill="none" xmlns="http://www.w3.org/2000/svg">
<rect x="275.342" y="527.549" width="352" height="352" rx="27" transform="rotate(-134 275.342 527.549)" fill="black" fill-opacity="0.05" stroke="url(#paint0_linear_1398_30)" stroke-width="10"/>
<g filter="url(#filter0_f_1398_30)">
<rect x="275.699" y="471.36" width="272" height="272" rx="32" transform="rotate(-134 275.699 471.36)" fill="#EF6220"/>
<rect x="275.724" y="469.946" width="270" height="270" rx="31" transform="rotate(-134 275.724 469.946)" stroke="url(#paint1_linear_1398_30)" stroke-width="2"/>
</g>
<rect x="275.724" y="469.946" width="270" height="270" rx="31" transform="rotate(-134 275.724 469.946)" fill="#0E0D0D" stroke="url(#paint2_linear_1398_30)" stroke-width="2"/>
<path d="M267.761 264.257V307.927L273.472 307.909C275.064 307.909 276.374 309.201 276.374 310.8C276.374 312.398 275.082 313.701 273.484 313.701L246.882 313.77C247.247 315.965 247.485 318.189 247.485 320.449V322.464C247.485 330.445 253.983 336.944 261.964 336.944H267.756C271.323 336.944 274.752 335.634 277.41 333.254C278.597 332.183 280.434 332.287 281.499 333.48C282.565 334.673 282.466 336.503 281.273 337.569C277.549 340.899 272.754 342.735 267.761 342.735H261.97C250.792 342.735 241.699 333.642 241.699 322.464V320.449C241.699 310.562 237.54 301.214 230.295 294.785C217.2 283.195 210.829 265.849 213.262 248.387C216.476 225.377 235.583 206.75 258.703 204.098C273.565 202.389 288.461 207.069 299.54 216.949C310.631 226.842 316.991 241.026 316.991 255.87C316.991 256.901 316.961 257.92 316.898 258.934C316.805 260.526 315.444 261.737 313.84 261.656C312.241 261.563 311.025 260.191 311.118 258.598C311.17 257.695 311.199 256.791 311.199 255.87C311.199 242.676 305.546 230.062 295.689 221.276C285.698 212.368 272.806 208.32 259.369 209.855C238.826 212.206 221.85 228.753 219.001 249.187C216.835 264.72 222.494 280.149 234.135 290.459C239.469 295.185 243.367 301.26 245.533 307.985L261.97 307.944V264.257C253.769 262.867 247.49 255.766 247.49 247.177C247.49 245.578 248.788 244.281 250.386 244.281C251.985 244.281 253.282 245.578 253.282 247.177C253.282 253.565 258.477 258.76 264.865 258.76C271.253 258.76 276.449 253.565 276.449 247.177C276.449 245.578 277.746 244.281 279.344 244.281C280.943 244.281 282.241 245.578 282.241 247.177C282.241 255.766 275.962 262.872 267.761 264.257ZM351.741 287.719V336.132C351.914 341.45 345.208 344.768 341.09 341.38L327.757 331.146H302.517C294.536 331.146 288.038 324.648 288.038 316.667V287.707C287.876 279.923 294.739 273.066 302.523 273.228H337.273C345.254 273.24 351.752 279.738 351.752 287.719H351.741ZM345.949 287.719C345.949 282.929 342.051 279.032 337.261 279.032H302.511C297.843 278.921 293.719 283.039 293.818 287.714V316.672C293.818 321.462 297.716 325.36 302.506 325.36H328.73C329.367 325.36 329.987 325.568 330.491 325.962L344.605 336.793C344.947 337.048 345.265 336.984 345.474 336.88C345.682 336.775 345.931 336.567 345.931 336.144V287.719H345.949Z" fill="#EF6220" stroke="#EF6220" stroke-width="0.4"/>
<defs>
<filter id="filter0_f_1398_30" x="-6.10352e-05" y="0" width="558.112" height="558.112" filterUnits="userSpaceOnUse" color-interpolation-filters="sRGB">
<feFlood flood-opacity="0" result="BackgroundImageFix"/>
<feBlend mode="normal" in="SourceGraphic" in2="BackgroundImageFix" result="shape"/>
<feGaussianBlur stdDeviation="50" result="effect1_foregroundBlur_1398_30"/>
</filter>
<linearGradient id="paint0_linear_1398_30" x1="640.061" y1="893.155" x2="409.766" y2="652.781" gradientUnits="userSpaceOnUse">
<stop stop-color="#EF6220"/>
<stop offset="1" stop-color="#EF6220" stop-opacity="0"/>
</linearGradient>
<linearGradient id="paint1_linear_1398_30" x1="536.574" y1="727.528" x2="412.129" y2="607.352" gradientUnits="userSpaceOnUse">
<stop stop-color="#EF6220"/>
<stop offset="1" stop-color="#4F3ED2" stop-opacity="0"/>
</linearGradient>
<linearGradient id="paint2_linear_1398_30" x1="536.574" y1="727.528" x2="412.129" y2="607.352" gradientUnits="userSpaceOnUse">
<stop stop-color="#EF6220"/>
<stop offset="1" stop-color="#4F3ED2" stop-opacity="0"/>
</linearGradient>
</defs>
</svg>
